<?xml version="1.0" encoding="utf-8"?>
<!-- Generator: Adobe Illustrator 27.1.1, SVG Export Plug-In . SVG Version: 6.00 Build 0)  -->
<svg version="1.1" id="Layer_1" xmlns="http://www.w3.org/2000/svg" xmlns:xlink="http://www.w3.org/1999/xlink" x="0px" y="0px"
	 viewBox="0 0 171.4 56" style="enable-background:new 0 0 171.4 56;" xml:space="preserve">
<style type="text/css">
	.st0{fill-rule:evenodd;clip-rule:evenodd;fill:#FFFFFF;}
	.st1{fill-rule:evenodd;clip-rule:evenodd;fill:#F8D12E;}
	.st2{fill-rule:evenodd;clip-rule:evenodd;fill:#EAAD00;}
	.st3{fill:#F8D12E;}
	.st4{fill:#EAAD00;}
	.st5{enable-background:new    ;}
</style>
<g id="Shape-path">
	<g>
		<path id="path-1" class="st0" d="M36.8,24.7L27.1,35c-0.3,0.3-0.8,0.5-1.2,0.5H25c-0.4,0-0.9-0.2-1.2-0.5l-4.6-4.9
			c-0.3-0.3-0.3-0.8,0-1.1l1.8-1.9c0.3-0.3,0.7-0.3,1,0l2.9,3.1c0.3,0.3,0.7,0.3,1,0l8-8.5c0.3-0.3,0.7-0.3,1,0l1.8,1.9
			C37.1,23.9,37.1,24.4,36.8,24.7L36.8,24.7z"/>
	</g>
	<g>
		<path id="path-1_00000085242742052513431740000000768991365952077244_" class="st1" d="M36.8,24.7L27.1,35
			c-0.3,0.3-0.8,0.5-1.2,0.5H25c-0.4,0-0.9-0.2-1.2-0.5l-4.6-4.9c-0.3-0.3-0.3-0.8,0-1.1l1.8-1.9c0.3-0.3,0.7-0.3,1,0l2.9,3.1
			c0.3,0.3,0.7,0.3,1,0l8-8.5c0.3-0.3,0.7-0.3,1,0l1.8,1.9C37.1,23.9,37.1,24.4,36.8,24.7L36.8,24.7z"/>
	</g>
	<g>
		<path id="path-1_00000165220030099754909280000002854779742982109331_" class="st2" d="M36.8,24.7L27.1,35
			c-0.3,0.3-0.8,0.5-1.2,0.5H25c-0.4,0-0.9-0.2-1.2-0.5l-4.6-4.9c-0.3-0.3-0.3-0.8,0-1.1l1.8-1.9c0.3-0.3,0.7-0.3,1,0l2.9,3.1
			c0.3,0.3,0.7,0.3,1,0l8-8.5c0.3-0.3,0.7-0.3,1,0l1.8,1.9C37.1,23.9,37.1,24.4,36.8,24.7L36.8,24.7z"/>
	</g>
</g>
<g id="Shape">
	<g>
		<polygon id="path-2" class="st3" points="28,0 28.9,2.9 31.7,2.9 29.4,4.6 30.3,7.5 28,5.7 25.7,7.5 26.6,4.6 24.3,2.9 27.1,2.9 
					"/>
	</g>
	<g>
		<polygon id="path-2_00000182521431137533099820000011272980153866411709_" class="st4" points="28,0 28.9,2.9 31.7,2.9 29.4,4.6 
			30.3,7.5 28,5.7 25.7,7.5 26.6,4.6 24.3,2.9 27.1,2.9 		"/>
	</g>
</g>
<g id="Shape_00000011739822963260224790000007139949820595706042_">
	<g>
		<polygon id="path-2_00000110434672933732965080000009062042861128980399_" class="st3" points="16.2,3.3 17.1,6.1 19.9,6.1 
			17.6,7.9 18.5,10.8 16.2,9 13.9,10.8 14.7,7.9 12.4,6.1 15.3,6.1 		"/>
	</g>
	<g>
		<polygon id="path-2_00000089542532391197599260000006630262517304530823_" class="st4" points="16.2,3.3 17.1,6.1 19.9,6.1 
			17.6,7.9 18.5,10.8 16.2,9 13.9,10.8 14.7,7.9 12.4,6.1 15.3,6.1 		"/>
	</g>
</g>
<g id="Shape_00000069362709448024766140000007637368405203444156_">
	<g>
		<polygon id="path-2_00000119824671536201367430000013243319146052008369_" class="st3" points="7.4,11.7 8.2,14.5 11.1,14.5 
			8.8,16.3 9.7,19.2 7.4,17.4 5.1,19.2 5.9,16.3 3.6,14.5 6.5,14.5 		"/>
	</g>
	<g>
		<polygon id="path-2_00000085226464256383394000000004106316475273370262_" class="st4" points="7.4,11.7 8.2,14.5 11.1,14.5 
			8.8,16.3 9.7,19.2 7.4,17.4 5.1,19.2 5.9,16.3 3.6,14.5 6.5,14.5 		"/>
	</g>
</g>
<g id="Shape_00000172429787352007817160000016050932480130372005_">
	<g>
		<polygon id="path-2_00000023978250862782189970000000286155695325683104_" class="st3" points="3.7,24.3 4.6,27.1 7.5,27.1 
			5.2,28.9 6,31.7 3.7,30 1.4,31.7 2.3,28.9 0,27.1 2.9,27.1 		"/>
	</g>
	<g>
		<polygon id="path-2_00000163065310426012862940000017413987192818260354_" class="st4" points="3.7,24.3 4.6,27.1 7.5,27.1 
			5.2,28.9 6,31.7 3.7,30 1.4,31.7 2.3,28.9 0,27.1 2.9,27.1 		"/>
	</g>
</g>
<g id="Shape_00000057144454386180102710000005732006248396137888_">
	<g>
		<polygon id="path-2_00000144309472394675019090000014361450592657321384_" class="st3" points="7.8,35.7 8.7,38.6 11.5,38.6 
			9.2,40.4 10.1,43.2 7.8,41.5 5.5,43.2 6.3,40.4 4,38.6 6.9,38.6 		"/>
	</g>
	<g>
		<polygon id="path-2_00000145054516138517936340000009668242012799756204_" class="st4" points="7.8,35.7 8.7,38.6 11.5,38.6 
			9.2,40.4 10.1,43.2 7.8,41.5 5.5,43.2 6.3,40.4 4,38.6 6.9,38.6 		"/>
	</g>
</g>
<g id="Shape_00000167363511010635904040000010990325951358678456_">
	<g>
		<polygon id="path-2_00000027606290675534174930000011185989247343729806_" class="st3" points="15.8,44.1 16.6,47 19.5,47 
			17.2,48.8 18.1,51.6 15.8,49.9 13.4,51.6 14.3,48.8 12,47 14.9,47 		"/>
	</g>
	<g>
		<polygon id="path-2_00000148626288062278228130000003244164555621725069_" class="st4" points="15.8,44.1 16.6,47 19.5,47 
			17.2,48.8 18.1,51.6 15.8,49.9 13.4,51.6 14.3,48.8 12,47 14.9,47 		"/>
	</g>
</g>
<g id="Shape_00000036236375023206502760000001566893593638305703_">
	<g>
		<polygon id="path-2_00000151528868571377126020000010998832041048755094_" class="st3" points="28,48.5 28.9,51.4 31.7,51.4 
			29.4,53.1 30.3,56 28,54.2 25.7,56 26.6,53.1 24.3,51.4 27.1,51.4 		"/>
	</g>
	<g>
		<polygon id="path-2_00000067937744144209291680000000922418997133375671_" class="st4" points="28,48.5 28.9,51.4 31.7,51.4 
			29.4,53.1 30.3,56 28,54.2 25.7,56 26.6,53.1 24.3,51.4 27.1,51.4 		"/>
	</g>
</g>
<g id="Shape_00000091709201632019571110000003978706216624180414_">
	<g>
		<polygon id="path-2_00000168091981367716551130000004282608918099628971_" class="st3" points="40.2,44.1 41.1,47 44,47 
			41.7,48.8 42.6,51.6 40.2,49.9 37.9,51.6 38.8,48.8 36.5,47 39.4,47 		"/>
	</g>
	<g>
		<polygon id="path-2_00000006703889947713762710000013178150784885122228_" class="st4" points="40.2,44.1 41.1,47 44,47 
			41.7,48.8 42.6,51.6 40.2,49.9 37.9,51.6 38.8,48.8 36.5,47 39.4,47 		"/>
	</g>
</g>
<g id="Shape_00000021117403597417918930000014142667451514387353_">
	<g>
		<polygon id="path-2_00000049905648224579696580000008782632106361770916_" class="st3" points="48.2,35.7 49.1,38.6 52,38.6 
			49.7,40.4 50.5,43.2 48.2,41.5 45.9,43.2 46.8,40.4 44.5,38.6 47.3,38.6 		"/>
	</g>
	<g>
		<polygon id="path-2_00000095323060339346149880000015769801339230179457_" class="st4" points="48.2,35.7 49.1,38.6 52,38.6 
			49.7,40.4 50.5,43.2 48.2,41.5 45.9,43.2 46.8,40.4 44.5,38.6 47.3,38.6 		"/>
	</g>
</g>
<g id="Shape_00000018209320467331698580000004014570237828808344_">
	<g>
		<polygon id="path-2_00000026875164118272082950000001393071362196242364_" class="st3" points="52.3,24.3 53.1,27.1 56,27.1 
			53.7,28.9 54.6,31.7 52.3,30 50,31.7 50.8,28.9 48.5,27.1 51.4,27.1 		"/>
	</g>
	<g>
		<polygon id="path-2_00000008124134179109988440000004870616869479055281_" class="st4" points="52.3,24.3 53.1,27.1 56,27.1 
			53.7,28.9 54.6,31.7 52.3,30 50,31.7 50.8,28.9 48.5,27.1 51.4,27.1 		"/>
	</g>
</g>
<g id="Shape_00000055694041711422902660000001742765920328630925_">
	<g>
		<polygon id="path-2_00000178176114567311105810000012923596676897142433_" class="st3" points="48.6,11.7 49.5,14.5 52.4,14.5 
			50.1,16.3 51,19.2 48.6,17.4 46.3,19.2 47.2,16.3 44.9,14.5 47.8,14.5 		"/>
	</g>
	<g>
		<polygon id="path-2_00000070820024047020877220000006087491041825866173_" class="st4" points="48.6,11.7 49.5,14.5 52.4,14.5 
			50.1,16.3 51,19.2 48.6,17.4 46.3,19.2 47.2,16.3 44.9,14.5 47.8,14.5 		"/>
	</g>
</g>
<g id="Shape_00000029020628573398613020000013039262611104832171_">
	<g>
		<polygon id="path-2_00000103981035084573356230000005845537670407194043_" class="st3" points="40,3.2 40.9,6.1 43.7,6 41.4,7.8 
			42.3,10.6 40,8.9 37.7,10.7 38.6,7.7 36.2,6.1 39.1,6 		"/>
	</g>
	<g>
		<polygon id="path-2_00000090990013883992001180000004538832945284565638_" class="st4" points="40,3.2 40.9,6.1 43.7,6 41.4,7.8 
			42.3,10.6 40,8.9 37.7,10.7 38.6,7.7 36.2,6.1 39.1,6 		"/>
	</g>
</g>
<g class="st5">
	<path d="M72.1,14.4v-0.1c0-3.4,2.4-5.8,5.8-5.8c2.5,0,4.8,1.2,5.1,4h-2.6c-0.2-1.3-1.1-1.9-2.5-1.9c-2,0-3.1,1.5-3.1,3.8v0.1
		c0,2.2,0.9,3.8,3.2,3.8c1.9,0,2.7-1.1,2.7-2.4h-2.6V14h5.1v1.2c0,3-1.9,5.1-5.3,5.1C74.1,20.2,72.1,17.8,72.1,14.4z"/>
	<path d="M85.4,8.6h3.7c4,0,6,2.2,6,5.6v0.1c0,3.4-2,5.7-6,5.7h-3.7V8.6z M89.1,18c2.3,0,3.4-1.3,3.4-3.6v-0.1c0-2.3-1-3.6-3.4-3.6
		h-1V18H89.1z"/>
	<path d="M97.4,8.6h3.9c2.8,0,4.3,1.2,4.3,3.6v0.1c0,2.4-1.7,3.5-4.3,3.5h-1.4V20h-2.6L97.4,8.6L97.4,8.6z M101.2,14.1
		c1.3,0,1.9-0.6,1.9-1.7v-0.1c0-1.2-0.7-1.7-1.9-1.7h-1.3v3.5H101.2z"/>
	<path d="M107.7,8.6h4.1c2.7,0,4.4,1.1,4.4,3.5v0.1c0,1.7-1,2.6-2.3,3l3,4.8h-2.7l-2.7-4.4h-1.1V20h-2.6V8.6H107.7z M111.7,13.9
		c1.3,0,1.9-0.5,1.9-1.6v-0.1c0-1.2-0.7-1.6-1.9-1.6h-1.4v3.3C110.3,13.9,111.7,13.9,111.7,13.9z"/>
</g>
<g class="st5">
	<path d="M72.1,32.4L72.1,32.4c0-3.6,2.4-5.9,5.6-5.9c2.7,0,4.8,1.3,5,4.1h-2.6c-0.2-1.4-1-2.1-2.4-2.1c-1.8,0-2.9,1.4-2.9,3.8v0.1
		c0,2.4,1.1,3.7,3,3.7c1.4,0,2.4-0.7,2.6-2.2h2.5c-0.3,2.8-2.3,4.3-5.1,4.3C74,38.2,72.1,35.9,72.1,32.4z"/>
	<path d="M84.3,32.4L84.3,32.4c0-3.5,2.5-5.9,5.9-5.9s5.9,2.3,5.9,5.7v0.1c0,3.4-2.3,5.9-5.9,5.9C86.6,38.2,84.3,35.7,84.3,32.4z
		 M93.4,32.4L93.4,32.4c0-2.3-1.2-3.8-3.2-3.8S87,30,87,32.3v0.1c0,2.3,1.3,3.8,3.2,3.8C92.1,36.1,93.4,34.6,93.4,32.4z"/>
	<path d="M98.3,26.6h3.4l2.7,7.1l2.6-7.1h3.3V38h-2.6v-8l-3.1,8h-0.8l-3.2-8v8h-2.3V26.6z"/>
	<path d="M113.2,26.6h3.9c2.8,0,4.3,1.2,4.3,3.6v0.1c0,2.4-1.7,3.5-4.3,3.5h-1.4V38h-2.6L113.2,26.6L113.2,26.6z M117,32.1
		c1.3,0,1.9-0.6,1.9-1.7v-0.1c0-1.2-0.7-1.7-1.9-1.7h-1.3v3.5H117z"/>
	<path d="M123.5,26.6h2.6V36h4.6v2h-7.2V26.6z"/>
	<path d="M132.9,26.6h2.6V38h-2.6V26.6z"/>
	<path d="M141.2,26.6h3.4l3.7,11.4h-2.7l-0.8-2.5h-4.1l-0.8,2.5h-2.4L141.2,26.6z M141.3,33.6h3l-1.5-4.9L141.3,33.6z"/>
	<path d="M150.2,26.6h3l4.3,7.5v-7.5h2.3V38h-2.6l-4.7-8.1V38h-2.3V26.6z"/>
	<path d="M164.9,28.6h-3.1v-2h8.7v2h-3.1V38h-2.6v-9.4H164.9z"/>
</g>
<g class="st5">
	<path class="st4" d="M74,45.9h-2.3v-1.5h6.6v1.5H76V53h-2V45.9z"/>
	<path class="st4" d="M80.1,44.4h5.6v1.5H82v2h3v1.4h-3v2.1h3.8V53H80L80.1,44.4L80.1,44.4z"/>
	<path class="st4" d="M87.3,48.8L87.3,48.8c0-2.7,1.8-4.5,4.3-4.5c2.1,0,3.6,1,3.8,3.1h-2c-0.1-1-0.7-1.6-1.8-1.6
		c-1.4,0-2.2,1.1-2.2,2.8v0.1c0,1.8,0.8,2.8,2.2,2.8c1.1,0,1.8-0.5,2-1.6h1.9c-0.2,2.1-1.7,3.2-3.9,3.2
		C88.8,53.1,87.3,51.4,87.3,48.8z"/>
	<path class="st4" d="M97.3,44.4h1.9v3.5h3.4v-3.5h1.9V53h-1.9v-3.5h-3.4V53h-1.9V44.4z"/>
	<path class="st4" d="M107.1,44.4h2.3l3.3,5.6v-5.6h1.7V53h-1.9l-3.6-6.1V53h-1.7v-8.6H107.1z"/>
	<path class="st4" d="M116.3,48.8L116.3,48.8c0-2.7,1.9-4.5,4.4-4.5c2.6,0,4.4,1.7,4.4,4.3v0.1c0,2.6-1.8,4.4-4.4,4.4
		C118,53.1,116.3,51.3,116.3,48.8z M123.1,48.7L123.1,48.7c0-1.8-0.9-2.9-2.4-2.9s-2.4,1.1-2.4,2.8v0.1c0,1.8,1,2.8,2.4,2.8
		C122.2,51.6,123.1,50.5,123.1,48.7z"/>
	<path class="st4" d="M127.2,44.4h1.9v7.1h3.5V53h-5.4C127.2,53,127.2,44.4,127.2,44.4z"/>
	<path class="st4" d="M133.7,48.8L133.7,48.8c0-2.7,1.9-4.5,4.4-4.5c2.6,0,4.4,1.7,4.4,4.3v0.1c0,2.6-1.8,4.4-4.4,4.4
		C135.4,53.1,133.7,51.3,133.7,48.8z M140.5,48.7L140.5,48.7c0-1.8-0.9-2.9-2.4-2.9s-2.4,1.1-2.4,2.8v0.1c0,1.8,1,2.8,2.4,2.8
		C139.6,51.6,140.5,50.5,140.5,48.7z"/>
	<path class="st4" d="M144.1,48.8L144.1,48.8c0-2.7,1.8-4.5,4.4-4.5c1.9,0,3.6,0.9,3.8,3h-1.9c-0.2-1-0.8-1.5-1.9-1.5
		c-1.5,0-2.4,1.1-2.4,2.9v0.1c0,1.7,0.7,2.8,2.4,2.8c1.4,0,2-0.8,2.1-1.8h-1.9v-1.4h3.8v0.9c0,2.3-1.5,3.8-4,3.8
		C145.7,53.1,144.1,51.3,144.1,48.8z"/>
	<path class="st4" d="M156,49.3l-2.8-4.9h2.1l1.7,3.3l1.7-3.3h1.9l-2.7,4.9V53h-2v-3.7H156z"/>
</g>
</svg>
