<svg width="19" height="18" viewBox="0 0 19 18" fill="none" xmlns="http://www.w3.org/2000/svg">
<g clip-path="url(#clip0_13028_7613)">
<path fill-rule="evenodd" clip-rule="evenodd" d="M12.0288 11.2139C11.3934 11.2139 10.8594 10.7093 10.8594 10.0871C10.8594 9.46483 11.3934 8.94362 12.0288 8.94362C12.6641 8.94362 13.1794 9.46483 13.1794 10.0871C13.1794 10.7093 12.6641 11.2139 12.0288 11.2139ZM12.2986 13.4011C11.7068 13.98 10.7941 14.2614 9.5085 14.2614C9.50574 14.2614 9.50276 14.2608 9.49936 14.2608C9.49681 14.2608 9.49362 14.2614 9.49044 14.2614C8.20481 14.2614 7.29255 13.98 6.70137 13.4011C6.51969 13.2232 6.51969 12.9355 6.70137 12.758C6.88242 12.5806 7.17631 12.5806 7.358 12.758C7.766 13.1575 8.46342 13.3521 9.49044 13.3521C9.49362 13.3521 9.49681 13.3525 9.49936 13.3525C9.50255 13.3525 9.50574 13.3521 9.5085 13.3521C10.5355 13.3521 11.2334 13.1575 11.642 12.758C11.8237 12.5802 12.1176 12.5806 12.2986 12.758C12.4799 12.9359 12.4799 13.2236 12.2986 13.4011ZM5.82056 10.0873C5.82056 9.46567 6.3533 8.94383 6.98825 8.94383C7.6232 8.94383 8.13894 9.46567 8.13894 10.0873C8.13894 10.7089 7.62362 11.2141 6.98825 11.2141C6.35287 11.2141 5.82056 10.7095 5.82056 10.0873ZM15.1652 2.9093C15.5956 2.9093 15.9458 3.25201 15.9458 3.67306C15.9458 4.09411 15.5956 4.43725 15.1652 4.43725C14.7349 4.43725 14.385 4.09453 14.385 3.67306C14.385 3.25159 14.7351 2.9093 15.1652 2.9093ZM18 8.84954C18 7.7462 17.0835 6.84888 15.9568 6.84888C15.4691 6.84888 15.0212 7.0175 14.6695 7.29785C13.4236 6.53115 11.8426 6.06915 10.1481 5.97129L11.0321 3.23437L13.4614 3.79465C13.5252 4.6609 14.2647 5.34654 15.165 5.34654C16.0654 5.34654 16.8735 4.5958 16.8735 3.67306C16.8735 2.75033 16.1073 2 15.1652 2C14.5065 2 13.9338 2.36729 13.6486 2.90363L10.8256 2.25284C10.5893 2.19824 10.3502 2.33138 10.2769 2.55818L9.17934 5.95512C7.35333 5.9988 5.63696 6.46227 4.29991 7.27391C3.9529 7.00806 3.51685 6.84888 3.0434 6.84888C1.91651 6.84888 1 7.7462 1 8.84954C1 9.53161 1.35062 10.1345 1.88442 10.4955C1.86211 10.6543 1.85043 10.8139 1.85043 10.9756C1.85043 12.3546 2.66919 13.6375 4.15541 14.5873C5.58023 15.4983 7.46616 15.9998 9.46536 15.9998C11.4646 15.9998 13.3503 15.4983 14.7751 14.5873C16.2615 13.6375 17.0801 12.3546 17.0801 10.9756C17.0801 10.8284 17.0699 10.6822 17.0514 10.5371C17.6209 10.1818 17.9996 9.55807 17.9996 8.84954" fill="#636367"/>
</g>
<defs>
<clipPath id="clip0_13028_7613">
<rect width="17" height="14" fill="white" transform="translate(1 2)"/>
</clipPath>
</defs>
</svg>
