<svg width="371" height="424" viewBox="0 0 371 424" fill="none" xmlns="http://www.w3.org/2000/svg">
<g clip-path="url(#clip0_5029_26729)">
<path d="M6.98409 137.622C13.7575 165.647 25.8622 192.523 43.5169 215.322C46.8307 207.9 52.1134 201.581 56.999 195.083C68.7715 179.429 78.5104 162.253 85.9077 144.112C87.123 141.138 88.2654 137.76 86.9934 134.81C86.3128 133.239 85.0165 132.023 83.7282 130.889C68.5852 117.658 44.9997 111.873 36.622 93.5945C28.6251 76.1424 35.3337 44.1225 39.4658 24.9526C39.2795 25.8277 6.87877 42.8828 4.70737 44.4384C2.86007 45.7591 0.810213 53.8856 0.486124 59.6139C-0.453732 76.2153 -0.064826 92.9059 1.92022 109.41C3.06263 118.898 4.73168 128.321 6.98409 137.614V137.622Z" fill="#0043CE"/>
<path d="M38.7775 71.7023C30.7077 59.2492 18.8866 48.8541 4.71582 44.4465C15.1677 36.9438 25.7978 29.6924 36.598 22.7002C37.5055 22.1087 38.4453 21.5091 39.5067 21.2823C40.876 20.9906 42.2939 21.339 43.6307 21.7441C64.024 27.8694 78.9482 44.9326 92.3817 61.453C95.5578 65.3583 98.7663 69.3608 100.605 74.0519C101.059 75.2106 101.424 76.434 101.318 77.6736C101.197 79.1482 100.411 80.477 99.6089 81.7247C90.7856 95.4985 77.7653 106.096 63.9835 114.903C52.7943 122.058 53.3291 107.862 51.3116 100.587C48.4921 90.4427 44.5139 80.5661 38.7775 71.7023Z" fill="#0166FF"/>
<path d="M363.198 137.622C356.424 165.647 344.319 192.523 326.665 215.322C323.351 207.9 318.068 201.581 313.183 195.083C301.41 179.429 291.671 162.253 284.274 144.112C283.059 141.138 281.916 137.76 283.188 134.81C283.869 133.239 285.165 132.023 286.453 130.889C301.596 117.658 325.182 111.873 333.56 93.5945C341.557 76.1424 334.848 44.1225 330.716 24.9526C330.902 25.8277 363.303 42.8828 365.474 44.4384C367.322 45.7591 369.371 53.8856 369.696 59.6139C370.635 76.2153 370.246 92.9059 368.261 109.41C367.119 118.898 365.45 128.321 363.198 137.614V137.622Z" fill="#0043CE"/>
<path d="M331.413 71.7022C339.483 59.2491 351.304 48.854 365.474 44.4464C355.023 36.9437 344.392 29.6922 333.592 22.7C332.685 22.1086 331.745 21.509 330.684 21.2822C329.314 20.9905 327.896 21.3389 326.56 21.744C306.166 27.8692 291.242 44.9325 277.809 61.4529C274.632 65.3582 271.424 69.3606 269.585 74.0518C269.131 75.2104 268.766 76.4339 268.872 77.6735C268.993 79.1481 269.779 80.4769 270.581 81.7246C279.405 95.4984 292.425 106.096 306.207 114.903C317.396 122.057 316.861 107.862 318.879 100.587C321.698 90.4426 325.676 80.566 331.413 71.7022Z" fill="#0166FF"/>
<path d="M243.771 20.6421C243.301 16.2507 241.357 11.8026 237.711 9.32329C235.677 7.93781 233.263 7.24912 230.889 6.62525C216.831 2.95495 202.32 1.04283 187.801 0.9375C173.282 1.04283 158.771 2.95495 144.722 6.62525C142.34 7.24912 139.933 7.93781 137.9 9.32329C134.246 11.8107 132.309 16.2507 131.839 20.6421C130.754 30.7131 134.367 42.0481 135.712 52.0543C137.089 62.2955 147.549 58.5361 154.525 55.1089C155.02 54.8658 155.546 54.5741 155.757 54.0556C156.008 53.4236 155.684 52.7268 155.352 52.1353C152.962 47.8412 150.029 43.863 147.849 39.4635C145.678 35.064 144.276 30.0487 145.265 25.236C145.589 23.648 146.221 22.0437 147.485 21.031C148.416 20.2775 149.607 19.9291 150.766 19.6293C162.814 16.5099 212.813 16.5099 224.861 19.6293C226.019 19.9291 227.21 20.2775 228.142 21.031C229.406 22.0437 230.038 23.648 230.362 25.236C231.351 30.0487 229.949 35.064 227.777 39.4635C225.606 43.863 222.665 47.8493 220.275 52.1353C219.943 52.7268 219.619 53.4317 219.87 54.0556C220.072 54.566 220.607 54.8658 221.101 55.1089C228.077 58.5361 238.529 62.3036 239.915 52.0543C241.26 42.04 244.873 30.7131 243.787 20.6421H243.771Z" fill="#0166FF"/>
<path d="M342.569 177.768C330.57 34.3348 187.801 34.3348 187.801 34.3348C187.801 34.3348 45.0236 34.3348 33.0324 177.768C29.1433 224.226 28.6977 333.476 28.7382 389.155C28.7544 407.887 43.946 423.071 62.6783 423.071H312.923C331.655 423.071 346.847 407.895 346.863 389.155C346.904 333.476 346.45 224.226 342.569 177.768Z" fill="#0166FF"/>
<path d="M342.569 177.768C330.57 34.3348 187.801 34.3348 187.801 34.3348C187.801 34.3348 45.0236 34.3348 33.0324 177.768C29.1433 224.226 28.6977 333.476 28.7382 389.155C28.7382 400.125 33.956 409.864 42.0339 416.062C42.0339 356.884 42.5444 250.761 45.9716 204.611C56.9582 56.5349 187.801 56.5349 187.801 56.5349C187.801 56.5349 318.643 56.5349 329.638 204.611C333.065 250.753 333.576 356.884 333.576 416.062C341.654 409.864 346.863 400.125 346.871 389.155C346.912 333.476 346.458 224.226 342.577 177.768H342.569Z" fill="#0166FF"/>
<path d="M329.63 207.649C328.253 207.649 327.094 206.588 326.989 205.194C322.508 144.833 297.788 101.988 253.518 77.8601C220.404 59.8083 188.117 59.5653 187.793 59.5653C187.477 59.5653 155.19 59.8083 122.076 77.8601C77.8054 101.988 53.0856 144.833 48.6051 205.194C48.4998 206.653 47.2277 207.747 45.7693 207.641C44.3109 207.536 43.2171 206.264 43.3224 204.805C45.8665 170.574 55.0301 141.341 70.554 117.925C83.0152 99.1365 99.5599 84.0582 119.734 73.1041C154.015 54.4852 186.432 54.2745 187.793 54.2745C189.154 54.2745 221.571 54.4852 255.851 73.1041C276.026 84.0582 292.571 99.1446 305.032 117.925C320.564 141.341 329.727 170.566 332.263 204.805C332.369 206.264 331.275 207.536 329.816 207.641C329.752 207.641 329.687 207.641 329.614 207.641L329.63 207.649Z" fill="#6FA3FF"/>
<path d="M189.835 86.1482L185.152 57.6284L179.269 58.0335C179.188 58.2685 177.989 77.9974 177.471 86.5209C177.341 88.6113 179.002 90.3694 181.101 90.3694H186.237C188.482 90.3694 190.183 88.3601 189.827 86.1482H189.835ZM180.995 77.6895L181.506 64.4505H183.653L186.067 77.6895H180.995Z" fill="#6FA3FF"/>
<path d="M209.369 85.6054L203.698 57.2639L197.832 57.8716C197.759 58.1146 197.248 77.8678 197.029 86.4076C196.973 88.4979 198.699 90.2075 200.789 90.1346L205.926 89.9563C208.17 89.8753 209.807 87.8092 209.361 85.6135L209.369 85.6054ZM200.246 77.4627L200.295 64.2156L202.442 64.1427L205.318 77.2926L200.254 77.4708L200.246 77.4627Z" fill="#6FA3FF"/>
<g clip-path="url(#clip1_5029_26729)">
<path d="M218.752 225.369C218.752 208.362 204.97 194.58 187.971 194.58C170.973 194.58 157.183 208.362 157.183 225.369C157.183 235.504 162.101 244.465 169.66 250.08L159.865 319.686H216.07L206.274 250.072C213.833 244.465 218.752 235.496 218.752 225.36V225.369Z" fill="#161616"/>
</g>
</g>
<defs>
<clipPath id="clip0_5029_26729">
<rect width="370.182" height="422.125" fill="white" transform="translate(0 0.9375)"/>
</clipPath>
<clipPath id="clip1_5029_26729">
<rect width="61.5687" height="125.106" fill="white" transform="translate(157.183 194.58)"/>
</clipPath>
</defs>
</svg>
