<svg width="512" height="673" viewBox="0 0 512 673" fill="none" xmlns="http://www.w3.org/2000/svg">
<path d="M277.427 64.7963C266.54 70.4075 254.281 77.9515 253.098 90.1345C252.09 100.443 259.86 109.662 268.532 115.332C281.307 123.685 296.554 127.152 311.086 131.803C340.596 141.256 369.262 156.989 387.24 182.21C405.217 207.431 410.187 243.441 393.439 269.494C428.938 245.503 449.658 201.269 445.357 158.652C443.857 143.728 439.286 128.71 429.676 117.195C417.675 102.833 399.475 95.5817 383.443 85.9056C367.422 76.2295 351.882 61.1882 352.011 42.4686" fill="#C1DAFF"/>
<path d="M286.065 85.0503C290.284 87.5923 290.167 97.6315 290.073 101.099C289.979 104.566 294.55 101.368 293.436 91.048C292.323 80.7276 293.659 76.2645 299.683 71.9067C305.707 67.5489 281.248 63.2966 281.248 63.2966" fill="#91BDFF"/>
<path d="M334.535 359.577C334.535 359.577 312.503 539.663 317.788 594.369C320.788 625.412 358.49 617.845 363.799 602.464C370.913 581.834 407.279 365.411 394.844 354.118C389.77 349.503 389.57 348.015 383.101 347.008C357.154 342.99 344.345 353.251 334.535 359.589V359.577Z" fill="#91BDFF"/>
<path d="M375.892 638.778C372.142 613.194 363.528 590.433 356.286 579.984C345 563.665 321.525 572.92 320.037 586.673C315.291 630.344 354.762 700.068 348.199 771.186C347.66 776.996 351.797 795.728 354.106 801.163C356.625 807.102 368.04 800.097 373.888 796.325C374.146 788.594 374.592 775.86 375.213 760.151C377.545 701.532 381.143 674.659 375.881 638.778H375.892Z" fill="#91BDFF"/>
<path d="M319.067 366.711C319.067 366.711 317.473 548.132 305.109 601.679C298.101 632.066 261.688 619.66 258.43 603.717C254.059 582.338 246.183 363.021 259.977 353.439C265.614 349.526 266.013 348.074 272.541 347.921C298.792 347.312 310.16 359.155 319.055 366.711H319.067Z" fill="#91BDFF"/>
<path d="M241.705 638.157C248.761 613.276 260.257 591.839 268.801 582.408C282.114 567.707 304.182 579.925 303.878 593.76C302.893 637.677 254.679 701.673 251.925 773.049C251.702 778.882 245.163 796.911 242.162 802.007C238.893 807.571 228.486 799.137 223.177 794.626C223.927 786.93 225.146 774.243 226.575 758.581C231.896 700.15 231.826 673.043 241.717 638.146L241.705 638.157Z" fill="#91BDFF"/>
<path d="M393.462 380.37C392.9 381.144 392.29 381.893 391.646 382.62C378.461 397.579 344.873 396.372 326.473 397.883C304.347 399.699 274.72 405.568 260.047 384.787C243.182 360.889 259.496 332.88 269.27 309.99C274.333 298.124 277.064 286.69 276.689 273.805C276.337 262.078 270.466 250.212 266.457 239.212C260.586 223.093 254.328 207.114 247.694 191.3C242.972 180.078 231.451 164.498 240.288 152.596C251.163 137.964 278.658 139.616 294.256 138.14C312.34 136.43 342.248 137.871 360.366 136.758C367.539 136.313 362.769 137.086 369.214 140.284C388.903 150.054 379.047 187.118 374.383 203.495C368.875 222.8 361.421 242.387 363.777 262.313C366.355 284.078 379.903 302.177 389.712 321.119C398.396 337.894 406.014 363.291 393.474 380.37H393.462Z" fill="#91BDFF"/>
<path d="M326.064 98.4752C337.537 102.739 351.214 96.2846 357.308 85.6714C363.414 75.0698 362.816 61.5514 358.14 50.2471C351.284 33.6595 335.814 20.9025 318.211 17.3413" fill="#C1DAFF"/>
<path d="M337.339 24.5106C337.339 24.5106 363.591 40.6296 344.757 64.2693C340.714 69.3533 321.236 38.3102 323.182 38.3336C325.115 38.357 337.339 24.5106 337.339 24.5106V24.5106Z" fill="#C1DAFF"/>
<path d="M313.016 148.578L288.839 147.781L284.034 95.4413L305.035 100.209L313.016 148.578Z" fill="#91BDFF"/>
<path d="M310.567 133.255L307.497 100.771L286.073 96.6008C290.281 109.463 299.551 125.629 310.567 133.243V133.255Z" fill="#91BDFF"/>
<path d="M284.856 97.6903C284.856 97.6903 286.977 100.701 290.54 104.895C300.384 116.468 319.733 128.323 336.949 119.502C360.4 107.495 354.376 46.7326 343.149 36.5528C317.143 13.0069 267.312 38.0171 284.856 97.6903Z" fill="#91BDFF"/>
<path d="M274.788 84.8514C275.152 85.32 275.539 85.7768 275.937 86.222C278.761 89.3848 284.563 94.2815 289.121 91.3529C290.258 90.6149 289.954 90.0057 290.094 88.7991C290.364 86.5734 290.786 84.4297 291.606 82.3328C293.458 77.565 296.927 73.5704 301.228 70.8292C308.013 66.4949 316.194 65.2649 323.096 61.1532C328.218 58.0957 332.355 53.5388 335.332 48.3727C338.66 42.6093 340.617 35.7095 339.012 29.2431C335.261 14.2253 317.588 16.4159 306.045 19.4733C301.837 20.5862 281.586 26.5488 272.421 47.459C267.182 59.4077 266.456 74.2381 274.8 84.8631L274.788 84.8514Z" fill="#C1DAFF"/>
<path d="M292.029 91.06C294.9 96.3315 293.975 102.376 289.967 104.555C285.958 106.734 280.38 104.227 277.509 98.9555C274.637 93.684 275.563 87.6394 279.571 85.4605C283.579 83.2816 289.158 85.7885 292.029 91.06Z" fill="#91BDFF"/>
<path d="M359.92 172.745C369.097 204.081 373.867 229.981 376.527 247.775C382.68 288.963 382.527 320.264 398.501 326.051C403.001 327.691 409.681 328.241 414.264 324.844C420.182 320.463 421.729 310.318 418.237 299.166C414.674 283.106 411.123 267.057 407.56 250.997C403.669 221.043 399.778 191.101 395.888 161.159C394.387 154.083 391.305 148.859 387.367 145.134C377.183 135.493 360.108 133.595 351.541 140.448C350.158 141.561 343.431 145.965 342.997 153.345C342.54 161.159 349.209 169.382 359.909 172.745H359.92Z" fill="#91BDFF"/>
<path d="M457.967 438.157C461.154 444.061 468.608 445.889 473.694 442.632C478.218 439.739 479.964 433.401 477.269 428.13C478.335 428.317 479.402 428.505 480.468 428.692C474.304 423.678 468.139 418.665 461.975 413.639C443.212 355.336 426.617 313.012 418.202 300.689C416.397 298.041 411.815 291.048 403.998 289.771C402.756 289.572 395.326 288.494 390.884 292.828C384.977 298.592 388.001 310.33 389.313 315.402C397.189 345.918 449.025 424.651 457.955 438.157H457.967Z" fill="#91BDFF"/>
<path d="M469.663 417.294C466.58 416.181 463.428 415.314 460.017 415.326C456.724 415.349 450.935 416.392 450.032 419.414C449.564 420.972 450.689 422.109 451.861 424.405C455.482 431.48 451.896 434.467 454.896 443.042C455.482 444.717 456.548 449.052 460.146 452.683C461.975 454.522 463.99 456.303 465.068 458.657C465.807 460.286 466.264 462.359 467.928 463.027C468.924 463.425 470.108 463.132 470.952 462.476C472.299 461.422 473.19 459.419 472.792 457.732C472.428 456.221 470.565 453.831 471.327 452.226C472.346 450.094 475.71 449.333 477.808 449.274C485.625 449.075 492.68 453.737 500.321 455.389C501.844 455.717 503.802 455.729 504.516 454.347C504.997 453.409 504.61 452.215 503.884 451.465C503.157 450.703 502.149 450.293 501.176 449.895C497.508 448.396 493.84 446.896 490.172 445.397C489.621 445.174 488.144 444.553 488.238 443.733C488.32 443.019 489.633 442.878 490.195 442.902C490.934 442.937 491.648 443.194 492.352 443.452C496.266 444.858 500.204 446.158 504.153 447.459C505.431 447.88 506.743 448.302 508.091 448.208C509.427 448.115 510.81 447.365 511.255 446.1C511.947 444.085 509.779 443.03 508.29 442.433C506.11 441.554 503.872 440.805 501.622 440.102C497.121 438.684 492.563 437.454 488.121 435.861C487.324 435.568 486.351 435.018 486.492 434.174C486.586 433.659 487.101 433.308 487.617 433.237C488.133 433.167 488.648 433.319 489.152 433.472C494.262 434.994 499.372 436.529 504.481 438.052C505.454 438.345 507.482 439.012 508.208 437.935C508.935 436.857 507.693 435.486 506.884 434.912C503.989 432.874 500.532 431.972 497.18 430.976C493.887 429.992 490.711 428.762 487.511 427.521C487.23 427.415 486.914 427.275 486.808 426.993C486.668 426.63 486.961 426.209 487.336 426.08C487.711 425.951 488.121 426.033 488.508 426.103C491.813 426.759 495.164 427.216 498.528 427.485C499.395 427.556 500.52 427.439 500.766 426.607C500.895 426.162 500.684 425.681 500.356 425.365C499.372 424.393 497.215 423.549 495.926 423.057C494.098 422.355 492.141 422.073 490.207 421.921C487.242 421.699 484.242 421.792 481.324 421.218C477.28 420.41 473.53 418.676 469.686 417.294H469.663Z" fill="#91BDFF"/>
<path d="M266.152 177.114C259.929 209.164 257.585 235.393 256.6 253.363C254.303 294.949 257.362 326.086 242.01 333.349C237.673 335.399 231.075 336.57 226.2 333.618C219.907 329.811 217.41 319.854 219.848 308.421C221.899 292.102 223.95 275.784 225.989 259.478C227.079 229.302 228.169 199.114 229.247 168.937C230.079 161.756 232.669 156.262 236.244 152.186C245.49 141.643 262.308 138.164 271.473 144.196C272.949 145.169 280.063 148.941 281.176 156.251C282.36 163.994 276.489 172.791 266.14 177.137L266.152 177.114Z" fill="#91BDFF"/>
<path d="M193.234 450.493C190.621 456.678 183.354 459.185 177.987 456.409C173.217 453.949 170.885 447.798 173.088 442.304C172.045 442.586 171.002 442.878 169.959 443.16C175.631 437.595 181.304 432.031 186.964 426.455C200.219 366.665 212.806 322.982 220.037 309.932C221.584 307.132 225.498 299.74 233.163 297.737C234.381 297.421 241.671 295.664 246.499 299.564C252.922 304.754 250.988 316.726 250.156 321.892C245.152 353.006 200.863 436.213 193.234 450.493Z" fill="#91BDFF"/>
<path d="M179.65 430.801C182.615 429.407 185.674 428.247 189.073 427.943C192.342 427.662 198.214 428.154 199.386 431.094C199.995 432.605 198.987 433.847 198.026 436.225C195.073 443.605 198.929 446.241 196.737 455.073C196.315 456.795 195.659 461.212 192.401 465.171C190.748 467.174 188.909 469.13 188.053 471.579C187.467 473.266 187.209 475.374 185.615 476.194C184.666 476.686 183.459 476.511 182.557 475.925C181.115 474.999 180.037 473.09 180.283 471.368C180.494 469.822 182.146 467.268 181.232 465.757C180.013 463.73 176.603 463.285 174.505 463.426C166.712 463.953 160.114 469.248 152.66 471.602C151.172 472.071 149.226 472.258 148.382 470.958C147.82 470.068 148.089 468.849 148.746 468.029C149.402 467.209 150.363 466.694 151.3 466.214C154.816 464.386 158.332 462.547 161.836 460.72C162.364 460.438 163.77 459.689 163.606 458.892C163.465 458.189 162.141 458.166 161.579 458.248C160.84 458.353 160.16 458.681 159.481 458.998C155.719 460.766 151.91 462.418 148.101 464.082C146.87 464.62 145.593 465.159 144.257 465.194C142.909 465.218 141.468 464.609 140.917 463.39C140.038 461.458 142.101 460.204 143.53 459.454C145.616 458.377 147.785 457.416 149.953 456.514C154.301 454.687 158.731 453.035 162.997 451.043C163.77 450.68 164.672 450.036 164.462 449.216C164.321 448.712 163.782 448.408 163.254 448.396C162.739 448.373 162.235 448.572 161.754 448.771C156.809 450.762 151.863 452.765 146.917 454.757C145.98 455.143 144.023 455.999 143.191 454.991C142.37 453.984 143.472 452.508 144.234 451.863C146.917 449.567 150.293 448.349 153.527 447.049C156.715 445.772 159.762 444.237 162.833 442.715C163.102 442.574 163.395 442.41 163.489 442.129C163.606 441.754 163.254 441.356 162.879 441.262C162.493 441.168 162.094 441.285 161.719 441.391C158.485 442.351 155.191 443.113 151.875 443.687C151.019 443.839 149.882 443.827 149.566 443.019C149.402 442.597 149.566 442.094 149.859 441.742C150.75 440.688 152.824 439.645 154.055 439.036C155.801 438.169 157.734 437.701 159.645 437.373C162.575 436.869 165.575 436.693 168.423 435.838C172.372 434.655 175.947 432.582 179.638 430.848L179.65 430.801Z" fill="#91BDFF"/>
<path d="M257.013 339.194C250.427 354.247 253.814 385.15 253.814 385.15C253.814 385.15 290.05 369.066 318.564 399.184L330.073 398.645C330.073 398.645 345.221 374.742 397.384 376.054C397.384 376.054 404.972 354.493 395.737 335.13L257.013 339.194Z" fill="#91BDFF"/>
<path d="M336.857 76.9091C337.104 79.7088 337.057 82.5203 336.74 85.3083C337.748 84.746 338.756 84.1837 339.764 83.6331C340.455 86.0111 339.049 88.7992 336.729 89.666" stroke="#91BDFF" stroke-width="3.71793" stroke-linecap="round" stroke-linejoin="round"/>
<path d="M325.805 77.8578C324.621 79.2635 323.344 80.6927 321.633 81.3721C319.922 82.0515 317.672 81.7235 316.699 80.1655C316.125 80.4232 314.988 80.7161 314.414 80.9738" stroke="#91BDFF" stroke-width="3.71793" stroke-linecap="round" stroke-linejoin="round"/>
<path d="M324.937 103.536C324.527 102.809 324.949 101.849 325.652 101.392C326.343 100.947 327.222 100.888 328.054 100.912C331.266 100.994 334.383 101.978 337.442 102.95C335.824 99.3654 331.852 96.9991 327.925 97.2685" stroke="#91BDFF" stroke-width="3.36172" stroke-linecap="round" stroke-linejoin="round"/>
<path d="M308.988 70.513C308.378 71.005 307.804 71.5673 307.476 72.2701C307.159 72.9847 307.136 73.8633 307.593 74.4959C310.769 71.9304 314.812 70.4661 318.902 70.4193C319.957 70.4193 322.289 70.2553 321.445 68.6855C320.93 67.725 318.023 67.7367 317.121 67.725C314.203 67.7132 311.273 68.6621 308.988 70.4896V70.513Z" fill="#91BDFF"/>
<path d="M281.506 89.6895C283.335 89.9355 285.057 90.9663 286.136 92.4658C287.214 93.9652 287.647 95.9215 287.308 97.7372C287.237 96.8938 286.382 96.2026 285.55 96.3198C284.718 96.4252 284.061 97.3155 284.214 98.1472" stroke="#91BDFF" stroke-width="3.71793" stroke-linecap="round" stroke-linejoin="round"/>
<path d="M141.284 147.626L167.759 146.864L166.479 102.449L140.004 103.212L141.284 147.626Z" fill="#78A9FF"/>
<path d="M140.243 111.41L139.879 98.9579L166.354 98.1964L166.905 117.455C157.717 117.455 148.88 115.1 140.231 111.41H140.243Z" fill="#78A9FF"/>
<path d="M153.041 9.49536C180.933 8.68707 193.227 27.6058 192.278 59.2698C191.493 85.3812 176.574 107.732 155.889 108.33C134.079 108.962 117.484 87.5601 116.734 61.4487C115.937 33.7442 125.148 10.3037 153.041 9.49536Z" fill="#78A9FF"/>
<path d="M164.315 22.1001C184.883 23.1192 186.43 23.5527 188.563 22.1821C194.434 18.3866 195.876 6.43792 191.54 2.20902C189.746 0.463578 185.082 0.311293 175.812 0.0887197C171.851 -0.00499544 169.87 -0.051853 166.589 0.0887197C148.095 0.943871 130.633 1.74045 126.555 10.4442C125.195 13.3377 124.328 16.8169 121.574 18.4686C120.039 19.3823 118.152 19.5463 116.546 20.3195C114.272 21.4089 112.737 23.6347 111.811 25.9658C110.886 28.297 110.464 30.8039 109.807 33.2405C108.881 36.6259 107.487 39.906 106.959 43.3734C106.198 48.3403 108.249 53.1549 111.085 57.1261C112.831 59.5627 116.394 65.4199 119.886 65.4433C121.14 60.1484 117.003 54.6075 120.671 49.4649C121.632 48.106 122.054 48.4692 123.32 46.7823C125.113 44.3809 125.699 41.5108 125.875 38.5822C126.051 35.4193 126.672 32.2213 127.164 29.0584C128.16 22.7092 131.606 20.8232 137.77 21.0575C145.634 21.3621 153.51 21.6549 161.373 21.9595C162.37 21.9946 161.76 21.9712 164.338 22.1001H164.315Z" fill="#C1DAFF"/>
<path d="M189.149 66.1577C188.387 65.982 189.547 41.3349 187.731 40.1986C186.653 39.5075 186.067 39.8589 184.953 38.91C181.156 35.6886 187.719 28.6365 184.684 25.1925C181.953 22.0999 169.284 23.8922 164.515 20.7293C161.807 18.9253 164.585 17.5898 164.749 15.4109C164.936 12.9744 163.132 11.5101 165.675 9.24917C166.976 8.10116 168.734 7.60916 170.468 7.49201C174.382 7.2343 178.273 8.76888 181.367 11.1703C184.461 13.5718 186.84 16.7815 188.833 20.167C192.665 26.6802 195.185 33.9666 196.216 41.4521C196.685 44.8492 197.071 47.8598 195.806 50.9993C194.388 54.4902 193.005 57.9928 191.645 61.5071C191.481 61.9405 189.887 66.3334 189.172 66.1694L189.149 66.1577Z" fill="#C1DAFF"/>
<path d="M190.532 59.8905C190.672 59.4454 190.919 51.3859 196.767 52.487C204.455 53.9396 200.365 79.6879 189.079 71.3355" fill="#78A9FF"/>
<path d="M116.898 59.434C116.757 58.9888 116.534 51.0465 110.663 52.0305C101.814 53.5182 107.065 79.2313 118.351 70.879" fill="#78A9FF"/>
<path d="M94.7119 640.831C92.4969 663.569 95.6026 686.576 97.2902 709.266C100.056 742.5 103.314 776.027 103.314 809.401C103.338 815.118 100.197 822.439 103.209 827.734C105.869 832.408 112.619 833.486 117.46 831.131C128.523 825.743 128.464 812.822 128.089 802.22C127.667 790.166 125.734 777.901 128.558 765.988C133.187 746.471 138.004 726.334 140.418 706.314C142.27 690.98 143.383 668.594 139.082 640.503C137.465 627.605 125.909 618.691 114.26 620.038C104.193 621.198 95.7784 629.831 94.7119 640.843V640.831Z" fill="#78A9FF"/>
<path d="M226.921 640.831C229.136 663.569 226.03 686.576 224.343 709.266C221.577 742.5 218.319 776.027 218.319 809.401C218.295 815.118 221.436 822.439 218.424 827.734C215.764 832.408 209.014 833.486 204.173 831.131C193.11 825.743 193.169 812.822 193.532 802.22C193.954 790.166 195.888 777.901 193.063 765.988C188.422 746.471 183.617 726.334 181.203 706.314C179.351 690.98 178.238 668.594 182.539 640.503C184.156 627.605 195.712 618.691 207.361 620.038C217.428 621.198 225.843 629.831 226.909 640.843L226.921 640.831Z" fill="#78A9FF"/>
<path d="M207.607 169.022C223.323 219.078 239.038 269.122 254.754 319.177C257.45 327.764 265.595 333.926 274.56 333.117C278.615 332.754 282.19 331.161 284.628 328.56C289.175 323.699 288.518 316.6 288.319 314.901C287.827 311.364 287.335 307.838 286.831 304.312C275.486 254.631 264.142 204.962 252.797 155.281C251.977 151.708 249.188 144.551 242.507 138.822C227.67 126.101 198.969 126.768 193.567 138.366C188.328 149.6 206.458 167.898 207.607 169.034V169.022Z" fill="#78A9FF"/>
<path d="M267.74 470.105C276.834 469.613 279.061 470.925 288.155 470.445C288.155 457.595 288.155 336.011 288.155 322.855V321.145H288.132C288.097 319.704 287.897 317.783 287.171 315.663C284.827 308.869 277.573 301.512 269.732 302.402C261.599 303.328 254.11 312.98 256.055 324.531C257.661 373.661 266.123 420.987 267.728 470.117L267.74 470.105Z" fill="#78A9FF"/>
<path d="M291.999 480.848C291.378 477.017 290.206 473.128 289.655 470.152C288.401 463.346 285.366 456.681 277.526 456.376C270.928 456.119 265.337 460.195 261.118 464.881C257.122 469.309 252.317 474.733 251.321 480.824C250.899 483.413 251.239 486.061 251.59 488.661C251.778 490.032 251.965 491.437 252.61 492.656C253.348 494.061 255.106 495.198 256.477 494.389C257.778 493.628 257.767 491.801 257.708 490.289C257.649 488.79 258.036 486.881 259.513 486.564C260.732 489.622 261.423 492.89 261.529 496.182C261.611 498.864 261.95 502.543 265.455 502.836C268.537 503.093 270.377 498.361 273.447 498.747C275.264 498.982 276.67 500.856 278.557 500.692C281.182 500.469 282.12 497.119 283.889 495.631C286.245 493.64 289.925 493.546 291.425 490.477C292.703 487.841 292.597 484.362 292.023 480.836L291.999 480.848Z" fill="#78A9FF"/>
<path d="M103.795 173.802C80.2973 220.706 56.7879 267.61 33.2901 314.515C29.2586 322.563 20.2345 327.342 11.5152 325.116C7.57741 324.109 4.29595 321.977 2.30363 319.013C-1.41147 313.484 0.369901 306.584 0.838683 304.944C1.89344 301.535 2.94821 298.126 3.99125 294.718C23.1176 247.485 42.2439 200.253 61.3702 153.02C62.7414 149.623 66.644 143.004 74.1562 138.412C90.8332 128.209 119.066 133.445 122.546 145.757C125.921 157.683 105.108 172.853 103.795 173.79V173.802Z" fill="#78A9FF"/>
<path d="M84.5288 440.503C79.4542 467.458 75.3992 505.225 80.2159 549.752C86.3218 606.25 87.5055 592.005 94.549 641.546C96.0022 651.725 104.007 665.338 115.738 670.14C116.781 670.562 125.981 673.479 131.747 668.957C131.747 668.957 134.665 666.673 135.919 662.151C139.728 648.457 155.35 464.986 157.483 439.941C146.736 419.874 129.942 407.387 114.929 409.788C100.127 412.154 87.8102 424.443 84.5288 440.491V440.503Z" fill="#78A9FF"/>
<path d="M234.234 154.625C229.839 132.239 185.094 123.207 148.306 125.948C131.793 127.178 92.0874 125.608 77.0043 149.588C70.2538 160.33 72.1172 170.041 81.7507 222.744C91.2435 274.662 90.5873 344.796 87.2237 400.838C86.1455 418.726 85.8526 433.486 85.7705 443.314C98.4628 448.832 168.722 459.445 233.308 446.255C238.875 445.118 236.109 436.907 235.3 424.981C229.886 345.195 224.975 260.945 229.124 226.024C232.71 195.824 233.835 170.955 234.222 154.613L234.234 154.625Z" fill="#78A9FF"/>
<path d="M237.105 440.503C242.179 467.458 246.234 505.225 241.417 549.752C235.312 606.25 234.128 592.005 227.084 641.546C225.631 651.725 217.627 665.338 205.895 670.14C204.852 670.562 195.653 673.479 189.887 668.957C189.887 668.957 186.968 666.673 185.714 662.151C181.906 648.457 166.283 464.986 164.15 439.941C174.897 419.874 191.691 407.387 206.704 409.788C221.506 412.154 233.823 424.443 237.105 440.491V440.503Z" fill="#78A9FF"/>
<path d="M154.271 372.384C149.83 380.327 150.029 382.915 145.587 390.858C134.043 385.211 24.7937 331.735 12.9803 325.948L11.9139 325.433L11.4451 325.199V325.175C10.1677 324.507 8.53866 323.488 6.95652 321.895C1.88195 316.811 -1.54019 307.053 2.71401 300.411C7.12056 293.511 19.0862 291.039 28.6142 297.869C72.0469 320.911 110.85 349.33 154.283 372.384H154.271Z" fill="#78A9FF"/>
<path d="M153.251 398.882C150.087 396.645 147.098 393.88 144.672 392.076C139.105 387.952 134.453 382.306 137.629 375.125C140.301 369.081 146.418 365.859 152.489 364.137C158.232 362.497 165.205 360.576 171.123 362.357C173.631 363.118 175.858 364.582 178.05 366.047C179.198 366.808 180.37 367.605 181.19 368.717C182.128 369.994 182.374 372.079 181.05 372.958C179.796 373.79 178.155 372.97 176.831 372.255C175.506 371.541 173.62 371.049 172.694 372.232C174.897 374.68 177.546 376.73 180.452 378.276C182.819 379.53 185.984 381.463 184.706 384.731C183.581 387.613 178.518 387.179 177.522 390.108C176.924 391.842 177.991 393.927 177.03 395.543C175.682 397.804 172.248 397.172 170.139 398.097C167.314 399.339 165.615 402.607 162.193 402.584C159.263 402.572 156.181 400.944 153.263 398.882H153.251Z" fill="#78A9FF"/>
<path d="M347.252 345.916L292.554 353.528L302.053 421.838L356.751 414.225L347.252 345.916Z" fill="#0066FF"/>
<path d="M303.088 428.874L310.01 434.097L315.237 427.177L322.159 432.4L327.39 425.492L334.299 430.719L339.526 423.798L346.448 429.021L351.691 422.11L358.626 427.33L355.878 407.597L301.188 415.214L303.088 428.874Z" fill="#0066FF"/>
<path d="M307.195 369.873L305.175 370.159L302.484 367.187L301.953 367.262L302.418 370.549L300.747 370.782L299.631 362.807L302.844 362.363C303.661 362.251 304.327 362.382 304.819 362.76C305.322 363.136 305.618 363.688 305.715 364.401C305.879 365.565 305.404 366.351 304.281 366.773L307.186 369.889L307.195 369.873ZM301.764 365.902L303.07 365.714C303.435 365.67 303.697 365.546 303.88 365.376C304.06 365.193 304.115 364.95 304.066 364.614C304.019 364.291 303.893 364.07 303.674 363.954C303.454 363.838 303.177 363.805 302.8 363.852L301.49 364.028L301.748 365.893L301.764 365.902Z" fill="#C1DAFF"/>
<path d="M311.868 361.087L312.072 362.55L308.834 363.001L309.076 364.709L311.875 364.322L312.079 365.785L309.28 366.172L309.535 368.024L312.773 367.573L312.98 369.049L308.084 369.729L306.968 361.755L311.865 361.074L311.868 361.087Z" fill="#C1DAFF"/>
<path d="M315.788 368.243C315.1 367.984 314.542 367.556 314.083 366.994C313.632 366.416 313.347 365.754 313.246 364.975C313.132 364.2 313.221 363.477 313.496 362.799C313.771 362.121 314.203 361.576 314.793 361.122C315.375 360.684 316.066 360.405 316.842 360.291C317.476 360.202 318.091 360.238 318.689 360.414C319.286 360.59 319.804 360.867 320.242 361.247L319.066 362.475C318.801 362.237 318.499 362.063 318.148 361.956C317.796 361.848 317.44 361.823 317.076 361.867C316.624 361.934 316.211 362.099 315.857 362.382C315.502 362.665 315.244 363.003 315.074 363.424C314.902 363.833 314.846 364.278 314.914 364.73C314.981 365.182 315.145 365.594 315.425 365.936C315.708 366.29 316.046 366.548 316.467 366.717C316.889 366.886 317.321 366.945 317.773 366.878C318.138 366.834 318.476 366.69 318.787 366.499C319.099 366.308 319.353 366.052 319.54 365.746L321.005 366.603C320.692 367.09 320.268 367.512 319.738 367.842C319.209 368.172 318.633 368.38 317.998 368.47C317.219 368.571 316.488 368.498 315.8 368.239L315.788 368.243Z" fill="#C1DAFF"/>
<path d="M325.95 359.127L326.154 360.59L322.916 361.041L323.158 362.749L325.957 362.362L326.161 363.825L323.362 364.212L323.617 366.064L326.855 365.613L327.062 367.089L322.153 367.773L321.037 359.798L325.947 359.114L325.95 359.127Z" fill="#C1DAFF"/>
<path d="M329.967 366.7L328.296 366.933L327.181 358.958L328.852 358.725L329.967 366.7Z" fill="#C1DAFF"/>
<path d="M333.553 358.07C334.37 357.958 335.037 358.089 335.528 358.467C336.031 358.843 336.324 359.382 336.424 360.108C336.524 360.833 336.39 361.433 336.007 361.912C335.637 362.387 335.032 362.683 334.202 362.798L332.648 363.013L333.105 366.275L331.434 366.508L330.318 358.534L333.532 358.089L333.553 358.07ZM333.786 361.446C334.151 361.402 334.413 361.278 334.596 361.108C334.766 360.941 334.831 360.682 334.782 360.346C334.732 360.01 334.605 359.789 334.386 359.673C334.167 359.557 333.889 359.524 333.512 359.571L332.203 359.748L332.46 361.613L333.77 361.436L333.786 361.446Z" fill="#C1DAFF"/>
<path d="M336.507 357.655L342.22 356.862L342.424 358.325L340.392 358.615L341.304 365.126L339.645 365.356L338.734 358.844L336.702 359.134L336.498 357.67L336.507 357.655Z" fill="#C1DAFF"/>
<path d="M334.025 376.879L302.35 381.287L302.607 383.137L334.282 378.729L334.025 376.879Z" fill="#00288C"/>
<path d="M334.682 381.457L303.007 385.865L303.265 387.716L334.939 383.307L334.682 381.457Z" fill="#00288C"/>
<path d="M335.313 386.027L303.638 390.436L303.895 392.286L335.57 387.878L335.313 386.027Z" fill="#00288C"/>
<path d="M335.948 390.61L304.273 395.019L304.53 396.869L336.205 392.461L335.948 390.61Z" fill="#00288C"/>
<path d="M348.692 402.309L335.22 404.184L335.478 406.034L348.95 404.16L348.692 402.309Z" fill="#00288C"/>
<path d="M349.321 406.88L335.849 408.755L336.106 410.605L349.578 408.73L349.321 406.88Z" fill="#00288C"/>
<path d="M193.609 417.93L138.804 411.126L130.3 479.567L185.105 486.371L193.609 417.93Z" fill="#0066FF"/>
<path d="M129.479 486.631L134.814 493.468L141.654 488.136L146.988 494.973L153.828 489.654L159.15 496.491L165.989 491.159L171.324 497.996L178.177 492.677L183.524 499.514L185.977 479.743L131.18 472.945L129.479 486.631Z" fill="#0066FF"/>
<path d="M148.715 430.703L146.69 430.457L144.86 426.889L144.328 426.824L143.926 430.12L142.251 429.912L143.238 421.92L146.457 422.323C147.274 422.426 147.884 422.725 148.261 423.218C148.65 423.711 148.793 424.32 148.702 425.034C148.559 426.202 147.897 426.837 146.703 426.954L148.702 430.716L148.715 430.703ZM144.497 425.462L145.808 425.618C146.171 425.67 146.457 425.618 146.677 425.501C146.898 425.371 147.015 425.151 147.054 424.813C147.093 424.489 147.028 424.243 146.846 424.074C146.664 423.905 146.405 423.802 146.028 423.75L144.717 423.581L144.484 425.449L144.497 425.462Z" fill="#C1DAFF"/>
<path d="M155.503 423.425L155.321 424.891L152.076 424.489L151.869 426.202L154.672 426.552L154.49 428.018L151.687 427.668L151.453 429.523L154.698 429.925L154.516 431.404L149.61 430.794L150.597 422.803L155.503 423.412V423.425Z" fill="#C1DAFF"/>
<path d="M157.436 431.352C156.839 430.924 156.411 430.366 156.112 429.704C155.827 429.03 155.723 428.316 155.827 427.538C155.918 426.759 156.19 426.085 156.632 425.501C157.073 424.917 157.631 424.502 158.319 424.217C158.994 423.944 159.734 423.853 160.512 423.944C161.148 424.022 161.732 424.217 162.265 424.541C162.797 424.865 163.225 425.268 163.549 425.748L162.096 426.63C161.901 426.331 161.655 426.085 161.343 425.89C161.032 425.696 160.694 425.579 160.331 425.527C159.876 425.475 159.435 425.527 159.02 425.709C158.604 425.89 158.267 426.15 157.994 426.513C157.722 426.863 157.553 427.278 157.501 427.732C157.449 428.187 157.501 428.628 157.683 429.03C157.865 429.445 158.124 429.782 158.488 430.055C158.851 430.327 159.253 430.496 159.708 430.548C160.071 430.6 160.435 430.548 160.785 430.444C161.135 430.34 161.447 430.158 161.706 429.912L162.901 431.119C162.472 431.508 161.953 431.806 161.356 431.988C160.759 432.169 160.149 432.221 159.513 432.143C158.734 432.04 158.046 431.78 157.449 431.352H157.436Z" fill="#C1DAFF"/>
<path d="M169.611 425.177L169.43 426.643L166.185 426.24L165.977 427.953L168.781 428.303L168.599 429.769L165.796 429.419L165.562 431.274L168.807 431.676L168.625 433.155L163.706 432.545L164.692 424.554L169.611 425.164V425.177Z" fill="#C1DAFF"/>
<path d="M171.532 433.532L169.857 433.324L170.844 425.332L172.518 425.54L171.532 433.532Z" fill="#C1DAFF"/>
<path d="M177.23 426.124C178.047 426.227 178.657 426.526 179.034 427.019C179.423 427.512 179.566 428.109 179.475 428.835C179.384 429.562 179.099 430.106 178.605 430.47C178.125 430.833 177.463 430.963 176.633 430.859L175.075 430.664L174.673 433.934L172.999 433.726L173.985 425.734L177.204 426.137L177.23 426.124ZM176.581 429.445C176.944 429.497 177.23 429.445 177.45 429.328C177.658 429.211 177.788 428.978 177.827 428.641C177.866 428.303 177.801 428.057 177.619 427.888C177.437 427.719 177.178 427.616 176.801 427.564L175.49 427.395L175.257 429.263L176.568 429.432L176.581 429.445Z" fill="#C1DAFF"/>
<path d="M180.188 426.487L185.912 427.2L185.73 428.666L183.692 428.42L182.887 434.946L181.226 434.738L182.031 428.212L179.993 427.966L180.175 426.5L180.188 426.487Z" fill="#C1DAFF"/>
<path d="M172.818 444.414L141.082 440.474L140.852 442.328L172.588 446.268L172.818 444.414Z" fill="#00288C"/>
<path d="M172.269 449.007L140.533 445.067L140.302 446.921L172.039 450.861L172.269 449.007Z" fill="#00288C"/>
<path d="M171.696 453.585L139.96 449.645L139.73 451.499L171.466 455.439L171.696 453.585Z" fill="#00288C"/>
<path d="M171.123 458.176L139.387 454.236L139.156 456.09L170.893 460.03L171.123 458.176Z" fill="#00288C"/>
<path d="M180.404 472.775L166.906 471.099L166.675 472.953L180.174 474.629L180.404 472.775Z" fill="#00288C"/>
<path d="M179.831 477.353L166.333 475.677L166.102 477.531L179.6 479.207L179.831 477.353Z" fill="#00288C"/>
</svg>
